<?xml version="1.0" encoding="utf-8"?>
<!-- Generator: Adobe Illustrator 24.1.2, SVG Export Plug-In . SVG Version: 6.00 Build 0)  -->
<svg version="1.1" id="Layer_1" xmlns="http://www.w3.org/2000/svg" xmlns:xlink="http://www.w3.org/1999/xlink" x="0px" y="0px"
	 viewBox="0 0 574.3 126.3" style="enable-background:new 0 0 574.3 126.3;" xml:space="preserve">
<style type="text/css">
	.st0{fill:#231F20;}
</style>
<path class="st0" d="M179,0.5v31.4H0C0,1.8,16.9,0.5,33.4,0.5H179z"/>
<path class="st0" d="M146.4,97.1H0c0,30.1,16.9,28.7,33.4,28.7h107.7c26.1,0,37.9-11.9,37.9-40.3s-11.9-40.3-37.9-40.3H0
	C0,75.3,16.9,73,33.4,73h113.1"/>
<path class="st0" d="M247.3,94.5h-11.5V31.9h146.3c0-9.5-18.8-31.4-29.6-31.4H247.3c-4.8,0-9.6,0.1-14.2,0.5l-2,0.2L229,1.5
	c-1.1,0.2-2.1,0.3-3.2,0.6c-0.7,0.1-1.4,0.3-2.1,0.5c-2.9,0.7-5.7,1.8-8.2,3.2c-2,1.1-3.8,2.6-5.4,4.2c-0.8,0.9-1.5,1.8-2.2,2.8
	c-0.7,1-1.3,2.1-1.8,3.3c-1.2,2.6-2,5.4-2.4,8.2c-0.3,1.7-0.4,3.3-0.5,5c0,0.9-0.1,1.8-0.1,2.7v62.6c0,0.9,0,1.9,0.1,2.7
	c0.1,1.7,0.2,3.3,0.5,5c0.4,2.8,1.2,5.6,2.4,8.2c0.5,1.1,1.1,2.2,1.8,3.3c0.7,1,1.4,1.9,2.2,2.8c2.4,2.5,5.3,4.5,8.5,5.7
	c1.7,0.7,3.4,1.3,5.1,1.7c0.7,0.2,1.4,0.3,2.1,0.5c1,0.2,2.1,0.4,3.2,0.5c0.7,0.1,1.5,0.2,2.2,0.3l2,0.2c4.6,0.4,9.4,0.5,14.2,0.5
	h105.2c10.8,0,29.6-21.8,29.6-31.4L247.3,94.5L247.3,94.5z"/>
<path class="st0" d="M541.8,73H439.6c-16.5,0-33.4,2.3-33.4-27.8h130.2c26.1,0,37.9,11.9,37.9,40.3v40.3h-32.3L541.8,73z"/>
<rect x="406.2" y="0.1" class="st0" width="31.4" height="126.3"/>
<path class="st0" d="M566.9,0h-38.4c-3.8-0.1-7.8,0-10.8,0l-50.1,31.6l-0.4,0.2l0,0l0,0h49.7C526.3,25.8,566.9,0,566.9,0z"/>
<path class="st0" d="M516.8,31.9h-33.5l50.5-31.8c9,0,26.5-0.9,22.6,4.6C552.7,10,553.2,8.4,516.8,31.9z"/>
</svg>
